<svg xmlns="http://www.w3.org/2000/svg" viewBox="0 0 250 52" width="250" height="52" fill="none">
  <!-- ANIXO Monochrome White Lockup -->
  <g id="anixo-mark" transform="translate(4, 4)">
    <rect width="44" height="44" rx="10" fill="#141A24" stroke="#2E3B52" stroke-width="1.5"/>
    <path d="M19 9 H25 L34.5 35 H28 L25.5 27 H18.5 L16 35 H9.5 L19 9 Z M22 16 L19.5 23 H24.5 L22 16 Z" fill="#FFFFFF"/>
    <polygon points="17,21 30,27 17,33" fill="#FFFFFF"/>
  </g>

  <g id="anixo-type" transform="translate(60, 14)">
    <path d="M 0,24 L 9,0 H 15 L 24,24 H 18.5 L 16.5,18 H 7.5 L 5.5,24 H 0 Z M 9,13.5 H 15 L 12,5 Z" fill="#FFFFFF"/>
    <path d="M 28,0 H 33.5 L 43.5,16.5 V 0 H 49 V 24 H 43.5 L 33.5,7.5 V 24 H 28 Z" fill="#FFFFFF"/>
    <path d="M 54,0 H 59.5 V 24 H 54 Z" fill="#FFFFFF"/>
    <path d="M 64,0 H 70 L 76,9.5 L 82,0 H 88 L 79.5,12 L 88.5,24 H 82.5 L 76,14.5 L 69.5,24 H 63.5 L 72.5,12 Z" fill="#FFFFFF"/>
    <path d="M 103,0 C 110,0 115,5 115,12 C 115,19 110,24 103,24 C 96,24 91,19 91,12 C 91,5 96,0 103,0 Z M 103,4.8 C 99,4.8 96.2,8 96.2,12 C 96.2,16 99,19.2 103,19.2 C 107,19.2 109.8,16 109.8,12 C 109.8,8 107,4.8 103,4.8 Z" fill="#FFFFFF"/>
    <text x="124" y="19" font-family="-apple-system, BlinkMacSystemFont, 'Segoe UI', Roboto, 'Outfit', monospace" font-size="9.5" font-weight="800" fill="#94A3B8" letter-spacing="2.5">EMBED</text>
  </g>
</svg>
